<svg width="55" height="54" viewBox="0 0 55 54" fill="none" xmlns="http://www.w3.org/2000/svg">
<path d="M45.972 8.57108C41.0491 3.64825 34.3723 0.882629 27.4104 0.882629C20.4485 0.882629 13.7717 3.64825 8.84886 8.57108C3.92603 13.4939 1.16042 20.1707 1.16042 27.1326C1.16042 30.5798 1.83939 33.9933 3.15858 37.1781C4.47776 40.3629 6.41133 43.2566 8.84886 45.6942C11.2864 48.1317 14.1802 50.0653 17.365 51.3845C20.5498 52.7037 23.9632 53.3826 27.4104 53.3826C30.8576 53.3826 34.2711 52.7037 37.4559 51.3845C40.6407 50.0653 43.5344 48.1317 45.972 45.6942C48.4095 43.2566 50.3431 40.3629 51.6623 37.1781C52.9814 33.9933 53.6604 30.5798 53.6604 27.1326C53.6604 20.1707 50.8948 13.4939 45.972 8.57108ZM45.972 8.57108L50.9304 15.466H47.8271C46.28 15.466 44.7963 16.0805 43.7023 17.1745C42.6083 18.2685 41.9938 19.7522 41.9938 21.2993C41.9938 22.8464 41.3792 24.3301 40.2852 25.4241C39.1912 26.518 37.7075 27.1326 36.1604 27.1326C34.6133 27.1326 33.1296 26.518 32.0356 25.4241C30.9417 24.3301 30.3271 22.8464 30.3271 21.2993C30.3271 19.7522 29.7125 18.2685 28.6185 17.1745C27.5246 16.0805 26.0408 15.466 24.4938 15.466H23.0354C21.1015 15.466 19.2469 14.6977 17.8794 13.3303C16.512 11.9628 15.7438 10.1082 15.7438 8.1743V3.60971L20.6604 1.76526L25.6604 0.940978L31.1604 1.15176L36.1604 2.38388L41.339 4.88263L45.972 8.57108ZM1.32083 24.216H6.99375C8.54085 24.216 10.0246 24.8305 11.1185 25.9245C12.2125 27.0185 12.8271 28.5022 12.8271 30.0493V32.966C12.8271 34.5131 13.4417 35.9968 14.5356 37.0908C15.6296 38.1847 17.1133 38.7993 18.6604 38.7993C20.2075 38.7993 21.6912 39.4139 22.7852 40.5078C23.8792 41.6018 24.4938 43.0855 24.4938 44.6326V53.2222C8.30748 49.438 1.13999 40.4688 1.32083 24.216ZM36.1604 51.8893V44.6326C36.1604 43.0855 36.775 41.6018 37.869 40.5078C38.9629 39.4139 40.4467 38.7993 41.9938 38.7993H50.9304C47.097 45.7719 43.8167 48.5937 36.1604 51.8893Z" stroke="black" stroke-linecap="round" stroke-linejoin="round"/>
</svg>
