<svg width="24" height="24" viewBox="0 0 24 24" fill="none" xmlns="http://www.w3.org/2000/svg">
<path d="M2.61093 3.62996C2.1002 4.14671 1.69507 4.76019 1.41867 5.43536C1.14226 6.11054 1 6.83419 1 7.56499C1 8.2958 1.14226 9.01944 1.41867 9.69462C1.69507 10.3698 2.1002 10.9833 2.61093 11.5L12 21L21.3891 11.5C22.4205 10.4564 23 9.04091 23 7.56499C23 6.08907 22.4205 4.67359 21.3891 3.62996C20.3576 2.58632 18.9587 2.00001 17.5 2.00001C16.0413 2.00001 14.6423 2.58632 13.6109 3.62996L12 5.25987L10.3891 3.62996C9.8784 3.1132 9.27209 2.70328 8.60479 2.42361C7.9375 2.14394 7.2223 2 6.50003 2C5.77775 2 5.06255 2.14394 4.39526 2.42361C3.72797 2.70328 3.12165 3.1132 2.61093 3.62996V3.62996Z" stroke="#41C3D3" stroke-width="2" stroke-linecap="round" stroke-linejoin="round"/>
</svg>
