<svg width="24" height="36" viewBox="0 0 24 36" fill="none" xmlns="http://www.w3.org/2000/svg">
<path d="M23 35V4.77778C23 3.77585 22.6689 2.81496 22.0795 2.10649C21.4901 1.39801 20.6907 1 19.8571 1H4.14286C3.30932 1 2.50992 1.39801 1.92052 2.10649C1.33112 2.81496 1 3.77585 1 4.77778V35M23 35H1M23 35H15.1429M1 35H8.85715M15.1429 35V25.5556C15.1429 25.0546 14.9773 24.5741 14.6826 24.2199C14.3879 23.8657 13.9882 23.6667 13.5714 23.6667H10.4286C10.0118 23.6667 9.61211 23.8657 9.31741 24.2199C9.02271 24.5741 8.85715 25.0546 8.85715 25.5556V35M15.1429 35H8.85715M6.3037 10.4034H7.87513M6.3037 17.9589H7.87513M11.3326 10.4034H12.904M11.3326 17.9589H12.904M6.3037 14.3043H7.87513M11.3326 14.3043H12.904M6.3037 7.28261H7.87513M11.3326 7.28261H12.904M15.7326 10.4034H17.304M15.7326 17.9589H17.304M15.7326 14.3043H17.304M15.7326 7.28261H17.304" stroke="black" stroke-width="0.5" stroke-linecap="round" stroke-linejoin="round"/>
</svg>
